<svg xmlns="http://www.w3.org/2000/svg" version="1.1" xmlns:xlink="http://www.w3.org/1999/xlink" xmlns:svgjs="http://svgjs.dev/svgjs" width="1000" height="1000" viewBox="0 0 1000 1000"><rect width="1000" height="1000" fill="#ffffff"></rect><g transform="matrix(0.7,0,0,0.7,150.31640752414268,12.145344129554644)"><svg viewBox="0 0 177 247" data-background-color="#d2d6dc" preserveAspectRatio="xMidYMid meet" height="1395" width="1000" xmlns="http://www.w3.org/2000/svg" xmlns:xlink="http://www.w3.org/1999/xlink"><defs></defs><g id="tight-bounds" transform="matrix(1,0,0,1,-0.08000576544060323,-0.09999999999999432)"><svg viewBox="0 0 177.16000873419162 247.2" height="247.2" width="177.16000873419162"><g><svg viewBox="0 0 395.52 551.8883448842935" height="247.2" width="177.16000873419162"><g transform="matrix(1,0,0,1,0,396.10011210277264)"><svg viewBox="0 0 395.52 155.78823278152083" height="155.78823278152083" width="395.52"><g><svg viewBox="0 0 395.52 155.78823278152083" height="155.78823278152083" width="395.52"><g><svg viewBox="0 0 395.52 112.3180527383367" height="112.3180527383367" width="395.52"><g transform="matrix(1,0,0,1,0,0)"><svg width="395.52" viewBox="3.4000000953674316 -35 123.23999786376953 35" height="112.3180527383367" data-palette-color="#636365"><path d="M17.95 0L3.4 0 3.4-35 17.45-35Q22.9-35 25.78-32.48 28.65-29.95 28.65-26L28.65-26Q28.65-22.7 26.88-20.73 25.1-18.75 22.55-18.05L22.55-18.05Q25.55-17.45 27.5-15.08 29.45-12.7 29.45-9.55L29.45-9.55Q29.45-5.4 26.45-2.7 23.45 0 17.95 0L17.95 0ZM9.8-29.85L9.8-20.3 16.5-20.3Q19.2-20.3 20.65-21.55 22.1-22.8 22.1-25.1L22.1-25.1Q22.1-27.3 20.68-28.58 19.25-29.85 16.4-29.85L16.4-29.85 9.8-29.85ZM9.8-15.5L9.8-5.2 16.95-5.2Q19.8-5.2 21.38-6.53 22.95-7.85 22.95-10.25L22.95-10.25Q22.95-12.7 21.3-14.1 19.65-15.5 16.85-15.5L16.85-15.5 9.8-15.5ZM39.1 0L32.4 0 45.2-35 52.4-35 65.2 0 58.4 0 55.6-8.1 41.95-8.1 39.1 0ZM48.75-27.65L43.7-13.1 53.85-13.1 48.75-27.65ZM74.14 0L67.45 0 80.25-35 87.45-35 100.25 0 93.45 0 90.65-8.1 77-8.1 74.14 0ZM83.8-27.65L78.75-13.1 88.9-13.1 83.8-27.65ZM126.64 0L104.74 0 104.74-35 111.14-35 111.14-5 126.64-5 126.64 0Z" opacity="1" transform="matrix(1,0,0,1,0,0)" fill="#000000" class="undefined-text-0" data-fill-palette-color="primary" id="text-0"></path></svg></g></svg></g><g transform="matrix(1,0,0,1,0,138.83364935659228)"><svg viewBox="0 0 395.52 16.954583424928554" height="16.954583424928554" width="395.52"><g transform="matrix(1,0,0,1,0,0)"><svg width="395.52" viewBox="5.099999904632568 -37.75 909.7300415039062 39" height="16.954583424928554" data-palette-color="#89939e"><path d="M5.1-36.3L15.1-36.3Q19.15-36.3 22.03-34.93 24.9-33.55 26.43-31 27.95-28.45 27.95-24.8L27.95-24.8Q27.95-22.65 27.3-20.55 26.65-18.45 25.23-16.73 23.8-15 21.45-13.98 19.1-12.95 15.75-12.95L15.75-12.95 10.45-12.95 10.45 0 5.1 0 5.1-36.3ZM10.45-18.1L15.75-18.1Q17.75-18.1 19.1-18.78 20.45-19.45 21.23-20.5 22-21.55 22.33-22.68 22.65-23.8 22.65-24.7L22.65-24.7Q22.65-25.7 22.33-26.83 22-27.95 21.25-28.93 20.5-29.9 19.2-30.53 17.9-31.15 15.95-31.15L15.95-31.15 10.45-31.15 10.45-18.1ZM35.25-36.3L45.2-36.3Q48.05-36.3 50.47-35.52 52.9-34.75 54.62-33.3 56.35-31.85 57.32-29.73 58.3-27.6 58.3-24.8L58.3-24.8Q58.3-22.65 57.65-20.55 57-18.45 55.55-16.75 54.1-15.05 51.75-14.03 49.4-13 45.9-13L45.9-13 40.6-13 40.6 0 35.25 0 35.25-36.3ZM40.6-18.1L45.8-18.1Q47.85-18.1 49.22-18.75 50.6-19.4 51.37-20.38 52.15-21.35 52.47-22.48 52.8-23.6 52.8-24.65L52.8-24.65Q52.8-25.65 52.47-26.75 52.15-27.85 51.37-28.85 50.6-29.85 49.3-30.5 48-31.15 46.1-31.15L46.1-31.15 40.6-31.15 40.6-18.1ZM45.6-14.85L51.95-15 61.35 0 55.15 0 45.6-14.85ZM65.34-18.1L65.34-18.1Q65.34-21.85 66.77-25.2 68.2-28.55 70.75-31.15 73.3-33.75 76.65-35.23 80-36.7 83.84-36.7L83.84-36.7Q87.65-36.7 91-35.23 94.34-33.75 96.95-31.15 99.55-28.55 101-25.2 102.45-21.85 102.45-18.1L102.45-18.1Q102.45-14.25 101-10.9 99.55-7.55 96.97-5 94.4-2.45 91.02-1.03 87.65 0.4 83.84 0.4L83.84 0.4Q80 0.4 76.65-1 73.3-2.4 70.75-4.93 68.2-7.45 66.77-10.83 65.34-14.2 65.34-18.1ZM70.84-18.1L70.84-18.1Q70.84-15.3 71.87-12.88 72.9-10.45 74.7-8.63 76.5-6.8 78.87-5.78 81.25-4.75 84-4.75L84-4.75Q86.7-4.75 89.05-5.78 91.4-6.8 93.17-8.63 94.95-10.45 95.95-12.88 96.95-15.3 96.95-18.1L96.95-18.1Q96.95-20.9 95.92-23.33 94.9-25.75 93.12-27.6 91.34-29.45 88.97-30.5 86.59-31.55 83.9-31.55L83.9-31.55Q81.09-31.55 78.75-30.5 76.4-29.45 74.59-27.6 72.8-25.75 71.82-23.3 70.84-20.85 70.84-18.1ZM106.29-31.15L106.29-36.3 130.49-36.3 130.49-31.15 120.94-31.15 120.94 0 115.59 0 115.59-31.15 106.29-31.15ZM138.04 0L138.04-36.3 161.89-36.3 161.89-31.15 143.39-31.15 143.39-20.8 159.84-20.8 159.84-15.65 143.39-15.65 143.39-5.15 162.59-5.15 162.59 0 138.04 0ZM199.44-18L199.44-3.2Q198.69-2.55 197.34-1.9 195.99-1.25 194.31-0.75 192.64-0.25 190.89 0.08 189.14 0.4 187.59 0.4L187.59 0.4Q183.19 0.4 179.69-0.95 176.19-2.3 173.69-4.7 171.19-7.1 169.86-10.33 168.54-13.55 168.54-17.35L168.54-17.35Q168.54-22 170.04-25.6 171.54-29.2 174.11-31.68 176.69-34.15 180.06-35.43 183.44-36.7 187.14-36.7L187.14-36.7Q190.39-36.7 193.16-35.95 195.94-35.2 197.94-34L197.94-34 196.19-29.1Q195.19-29.65 193.71-30.18 192.24-30.7 190.69-31 189.14-31.3 187.84-31.3L187.84-31.3Q184.64-31.3 182.11-30.38 179.59-29.45 177.79-27.7 175.99-25.95 175.01-23.45 174.04-20.95 174.04-17.8L174.04-17.8Q174.04-14.95 175.04-12.58 176.04-10.2 177.84-8.47 179.64-6.75 182.14-5.83 184.64-4.9 187.69-4.9L187.69-4.9Q189.44-4.9 191.14-5.25 192.84-5.6 194.04-6.25L194.04-6.25 194.04-12.85 187.04-12.85 187.04-18 199.44-18ZM208.49 0L208.49-36.3 232.34-36.3 232.34-31.15 213.84-31.15 213.84-20.8 230.29-20.8 230.29-15.65 213.84-15.65 213.84-5.15 233.04-5.15 233.04 0 208.49 0ZM258.68 0L253.43 0 269.38-37.75 269.68-37.75 285.63 0 279.53 0 267.93-29.4 271.78-31.95 258.68 0ZM261.53-9L263.13-13.6 276.03-13.6 277.88-9 261.53-9ZM307.53 0L314.58-5.2 326.78-5.2 326.78 0 307.53 0ZM288.08-18.1L288.08-18.1Q288.08-21.85 289.5-25.2 290.93-28.55 293.48-31.15 296.03-33.75 299.38-35.23 302.73-36.7 306.58-36.7L306.58-36.7Q310.38-36.7 313.73-35.23 317.08-33.75 319.68-31.15 322.28-28.55 323.73-25.2 325.18-21.85 325.18-18.1L325.18-18.1Q325.18-14.25 323.73-10.9 322.28-7.55 319.7-5 317.13-2.45 313.75-1.03 310.38 0.4 306.58 0.4L306.58 0.4Q302.73 0.4 299.38-1 296.03-2.4 293.48-4.93 290.93-7.45 289.5-10.83 288.08-14.2 288.08-18.1ZM293.58-18.05L293.58-18.05Q293.58-15.35 294.6-12.93 295.63-10.5 297.43-8.68 299.23-6.85 301.6-5.8 303.98-4.75 306.73-4.75L306.73-4.75Q309.43-4.75 311.78-5.8 314.13-6.85 315.9-8.65 317.68-10.45 318.68-12.88 319.68-15.3 319.68-18.1L319.68-18.1Q319.68-20.85 318.65-23.25 317.63-25.65 315.85-27.48 314.08-29.3 311.7-30.35 309.33-31.4 306.63-31.4L306.63-31.4Q303.83-31.4 301.48-30.35 299.13-29.3 297.33-27.45 295.53-25.6 294.55-23.2 293.58-20.8 293.58-18.05ZM339.58-36.3L339.58-12.95Q339.58-10.65 340.73-8.8 341.88-6.95 343.78-5.85 345.68-4.75 348.03-4.75L348.03-4.75Q350.53-4.75 352.48-5.85 354.43-6.95 355.55-8.8 356.68-10.65 356.68-12.95L356.68-12.95 356.68-36.3 361.93-36.3 361.93-12.8Q361.93-8.85 360.08-5.88 358.23-2.9 355.08-1.25 351.93 0.4 348.03 0.4L348.03 0.4 348.03 0.4Q344.23 0.4 341.08-1.25 337.93-2.9 336.1-5.88 334.28-8.85 334.28-12.8L334.28-12.8 334.28-36.3 339.58-36.3ZM371.57 0L371.57-36.3 395.42-36.3 395.42-31.15 376.92-31.15 376.92-20.8 393.37-20.8 393.37-15.65 376.92-15.65 376.92-5.15 396.12-5.15 396.12 0 371.57 0ZM404.32 0L404.32-36.3 409.67-36.3 409.67-5.15 427.82-5.15 427.82 0 404.32 0ZM435.62 0L435.62-36.3 440.97-36.3 440.97-5.15 459.12-5.15 459.12 0 435.62 0ZM463.97-18.1L463.97-18.1Q463.97-21.85 465.39-25.2 466.82-28.55 469.37-31.15 471.92-33.75 475.27-35.23 478.62-36.7 482.47-36.7L482.47-36.7Q486.27-36.7 489.62-35.23 492.97-33.75 495.57-31.15 498.17-28.55 499.62-25.2 501.07-21.85 501.07-18.1L501.07-18.1Q501.07-14.25 499.62-10.9 498.17-7.55 495.59-5 493.02-2.45 489.64-1.03 486.27 0.4 482.47 0.4L482.47 0.4Q478.62 0.4 475.27-1 471.92-2.4 469.37-4.93 466.82-7.45 465.39-10.83 463.97-14.2 463.97-18.1ZM469.47-18.1L469.47-18.1Q469.47-15.3 470.49-12.88 471.52-10.45 473.32-8.63 475.12-6.8 477.49-5.78 479.87-4.75 482.62-4.75L482.62-4.75Q485.32-4.75 487.67-5.78 490.02-6.8 491.79-8.63 493.57-10.45 494.57-12.88 495.57-15.3 495.57-18.1L495.57-18.1Q495.57-20.9 494.54-23.33 493.52-25.75 491.74-27.6 489.97-29.45 487.59-30.5 485.22-31.55 482.52-31.55L482.52-31.55Q479.72-31.55 477.37-30.5 475.02-29.45 473.22-27.6 471.42-25.75 470.44-23.3 469.47-20.85 469.47-18.1ZM542.11 0L549.16-5.2 561.36-5.2 561.36 0 542.11 0ZM522.66-18.1L522.66-18.1Q522.66-21.85 524.09-25.2 525.51-28.55 528.06-31.15 530.61-33.75 533.96-35.23 537.31-36.7 541.16-36.7L541.16-36.7Q544.96-36.7 548.31-35.23 551.66-33.75 554.26-31.15 556.86-28.55 558.31-25.2 559.76-21.85 559.76-18.1L559.76-18.1Q559.76-14.25 558.31-10.9 556.86-7.55 554.29-5 551.71-2.45 548.34-1.03 544.96 0.4 541.16 0.4L541.16 0.4Q537.31 0.4 533.96-1 530.61-2.4 528.06-4.93 525.51-7.45 524.09-10.83 522.66-14.2 522.66-18.1ZM528.16-18.05L528.16-18.05Q528.16-15.35 529.19-12.93 530.21-10.5 532.01-8.68 533.81-6.85 536.19-5.8 538.56-4.75 541.31-4.75L541.31-4.75Q544.01-4.75 546.36-5.8 548.71-6.85 550.49-8.65 552.26-10.45 553.26-12.88 554.26-15.3 554.26-18.1L554.26-18.1Q554.26-20.85 553.24-23.25 552.21-25.65 550.44-27.48 548.66-29.3 546.29-30.35 543.91-31.4 541.21-31.4L541.21-31.4Q538.41-31.4 536.06-30.35 533.71-29.3 531.91-27.45 530.11-25.6 529.14-23.2 528.16-20.8 528.16-18.05ZM574.16-36.3L574.16-12.95Q574.16-10.65 575.31-8.8 576.46-6.95 578.36-5.85 580.26-4.75 582.61-4.75L582.61-4.75Q585.11-4.75 587.06-5.85 589.01-6.95 590.13-8.8 591.26-10.65 591.26-12.95L591.26-12.95 591.26-36.3 596.51-36.3 596.51-12.8Q596.51-8.85 594.66-5.88 592.81-2.9 589.66-1.25 586.51 0.4 582.61 0.4L582.61 0.4 582.61 0.4Q578.81 0.4 575.66-1.25 572.51-2.9 570.68-5.88 568.86-8.85 568.86-12.8L568.86-12.8 568.86-36.3 574.16-36.3ZM606.15 0L606.15-36.3 630-36.3 630-31.15 611.5-31.15 611.5-20.8 627.95-20.8 627.95-15.65 611.5-15.65 611.5-5.15 630.7-5.15 630.7 0 606.15 0ZM652.15-31.15L652.15-36.3 676.35-36.3 676.35-31.15 666.8-31.15 666.8 0 661.45 0 661.45-31.15 652.15-31.15ZM683.9 0L683.9-36.3 707.75-36.3 707.75-31.15 689.25-31.15 689.25-20.8 705.7-20.8 705.7-15.65 689.25-15.65 689.25-5.15 708.45-5.15 708.45 0 683.9 0ZM744.39 0L732.54 0 732.54-36.3 742.64-36.3Q748.04-36.3 751.84-34.65 755.64-33 757.97-30.3 760.29-27.6 761.37-24.3 762.44-21 762.44-17.65L762.44-17.65Q762.44-13.6 760.99-10.35 759.54-7.1 757.04-4.78 754.54-2.45 751.29-1.23 748.04 0 744.39 0L744.39 0ZM737.89-31.15L737.89-5.15 743.39-5.15Q746.34-5.15 748.82-6 751.29-6.85 753.12-8.5 754.94-10.15 755.94-12.55 756.94-14.95 756.94-18.05L756.94-18.05Q756.94-21.4 755.82-23.88 754.69-26.35 752.84-27.98 750.99-29.6 748.72-30.38 746.44-31.15 744.09-31.15L744.09-31.15 737.89-31.15ZM770.39 0L770.39-36.3 794.24-36.3 794.24-31.15 775.74-31.15 775.74-20.8 792.19-20.8 792.19-15.65 775.74-15.65 775.74-5.15 794.94-5.15 794.94 0 770.39 0ZM803.14 0L803.14-36.3 824.89-36.3 824.89-31.15 808.49-31.15 808.49-20.25 822.84-20.25 822.84-15.15 808.49-15.15 808.49 0 803.14 0ZM832.68 0L832.68-36.3 838.03-36.3 838.03 0 832.68 0ZM880.03 1.25L879.88 1.25 851.93-26.5 853.48-26 853.63 0 848.23 0 848.23-37.45 848.48-37.45 876.08-9.65 874.83-10 874.73-36.3 880.03-36.3 880.03 1.25ZM890.28 0L890.28-36.3 914.13-36.3 914.13-31.15 895.63-31.15 895.63-20.8 912.08-20.8 912.08-15.65 895.63-15.65 895.63-5.15 914.83-5.15 914.83 0 890.28 0Z" opacity="1" transform="matrix(1,0,0,1,0,0)" fill="#000000" class="undefined-text-1" data-fill-palette-color="secondary" id="text-1"></path></svg></g></svg></g></svg></g></svg></g><g transform="matrix(1,0,0,1,26.225540566869256,0)"><svg viewBox="0 0 343.06891886626147 343.06891886626147" height="343.06891886626147" width="343.06891886626147"><g><svg></svg></g><g id="icon-0"><svg viewBox="0 0 343.06891886626147 343.06891886626147" height="343.06891886626147" width="343.06891886626147"><g><path d="M0 171.534c0-94.736 76.799-171.534 171.534-171.534 94.736 0 171.534 76.799 171.535 171.534 0 94.736-76.799 171.534-171.535 171.535-94.736 0-171.534-76.799-171.534-171.535zM171.534 332.94c89.142 0 161.405-72.264 161.406-161.406 0-89.142-72.264-161.405-161.406-161.405-89.142 0-161.405 72.264-161.405 161.405 0 89.142 72.264 161.405 161.405 161.406z" data-fill-palette-color="accent" fill="#000000" stroke="transparent"></path><ellipse rx="169.81911483879944" ry="169.81911483879944" cx="171.53445943313073" cy="171.53445943313073" fill="#000000" stroke="transparent" stroke-width="0" fill-opacity="1" data-fill-palette-color="accent"></ellipse></g><g transform="matrix(1,0,0,1,83.91833339188689,70.36646519831669)"><svg viewBox="0 0 175.2322520824877 202.3359884696281" height="202.3359884696281" width="175.2322520824877"><g><svg xmlns="http://www.w3.org/2000/svg" xmlns:xlink="http://www.w3.org/1999/xlink" version="1.1" x="0" y="0" viewBox="9.54699993133545 3.2899999618530273 80.906005859375 93.41999816894531" enable-background="new 0 0 100 100" xml:space="preserve" height="202.3359884696281" width="175.2322520824877" class="icon-x-0" data-fill-palette-color="quaternary" id="x-0"><g fill="#ffffff" data-fill-palette-color="quaternary"><path d="M31.112 39.094v21.812L49.999 71.81l18.89-10.903V39.094l-18.89-10.905L31.112 39.094zM60.925 56.308l-10.926 6.307-10.924-6.307V43.692l10.924-6.308 10.926 6.308V56.308z" fill="#ffffff" data-fill-palette-color="quaternary"></path><path d="M49.999 3.29L9.547 26.646v46.709L49.999 96.71l40.454-23.355V26.646L49.999 3.29zM82.19 68.584L49.999 87.169 17.811 68.584v-37.17l32.188-18.585L82.19 31.414V68.584z" fill="#ffffff" data-fill-palette-color="quaternary"></path><path d="M20.368 32.89v34.218l29.631 17.108 29.634-17.108V32.89L49.999 15.782 20.368 32.89zM71.446 62.383l-21.447 12.38-21.444-12.38V37.618l21.444-12.382 21.447 12.382V62.383z" fill="#ffffff" data-fill-palette-color="quaternary"></path></g></svg></g></svg></g></svg></g></svg></g><g></g></svg></g></svg><rect width="177.16000873419162" height="247.2" fill="none" stroke="none" visibility="hidden"></rect></g></svg></g></svg>